# xmcd
#
# Track frame offsets: 
#        150
#        33017
#        53238
#        76795
#        88568
#        122242
#        143055
#        160155
#        183497
#        197045
#        221732
#        241146
#        265241
#        282126
#        306060
#
# Disc length: 4326 seconds
#
# Revision: 2
# Processed by: cddbd v1.5.2PL0 Copyright (c) Steve Scherf et al.
# Submitted via: ExactAudioCopy v0.99pb5
#
DISCID=c810e40f
DTITLE=Various Artist - BLUES BALLADS Vol.2
DYEAR=1998
DGENRE=Blues
TTITLE0=ALBERT KING - I'll Play The Blues For You
TTITLE1=ROY BUCHANAN - A Nickel And A Nail
TTITLE2=LONNIE MACK - Stop
TTITLE3=ETTA JAMES - I'd Rather Go Blind
TTITLE4=ALVIN LEE feat.GEORGE HARRISON - The Bluesest Blues
TTITLE5=BUDDY GUY - Feels Like Rain
TTITLE6=MILLER ANDERSON - Don't Let Me Be Misunderstood
TTITLE7=JOHN LEE HOOKER feat.VAN MORR. - Healing Game
TTITLE8=HOWLIN' WOLF feat.E.CLAPTON... - Who's Been Talkin'
TTITLE9=ROBERT GRAY - Will You Think Of Me
TTITLE10=STEVIE RAY VAUGHAN - Life Without You
TTITLE11=ERIC CLAPTON - Going Down Slow
TTITLE12=TAJ MAHAL - Don't Tell Me
TTITLE13=JOHN MAYAL - Sensitive Kind
TTITLE14=J.J.CALE - Artificial Paradise
EXTD=
EXTT0=
EXTT1=
EXTT2=
EXTT3=
EXTT4=
EXTT5=
EXTT6=
EXTT7=
EXTT8=
EXTT9=
EXTT10=
EXTT11=
EXTT12=
EXTT13=
EXTT14=
PLAYORDER=
